<svg width="99" height="108" viewBox="0 0 99 108" fill="none" xmlns="http://www.w3.org/2000/svg">
<path fill-rule="evenodd" clip-rule="evenodd" d="M73.83 66.3401C81.39 75.9401 95.43 86.99 87.46 99.97C80 112.12 67.11 106.34 55.71 104.28C48.36 102.95 47.99 103.16 40.63 104.47C29.24 106.49 17.03 112.07 9.60999 99.97C0.609985 85.31 17.14 77.0901 24.2 66.0701C30.71 55.9001 34.39 36.3 49.25 36.3C66.18 36.3 65.18 55.3701 73.83 66.3501V66.3401ZM9.21002 27.76C4.13002 27.76 0 35.6399 0 43.2C0 50.76 4.33003 53.6702 9.41003 53.6702C14.49 53.6702 18.41 50.75 18.41 43.2C18.41 35.65 14.29 27.76 9.20001 27.76H9.21002ZM88.93 27.76C83.85 27.76 79.72 35.6399 79.72 43.2C79.72 50.76 84.05 53.6702 89.13 53.6702C94.21 53.6702 98.13 50.75 98.13 43.2C98.13 35.65 94.01 27.76 88.92 27.76H88.93ZM34.63 0C29.55 0 25.42 7.87994 25.42 15.4399C25.42 22.9999 29.33 25.9102 34.42 25.9102C39.51 25.9102 43.83 22.9899 43.83 15.4399C43.83 7.88994 39.71 0 34.62 0H34.63ZM63.51 0C68.59 0 72.72 7.87994 72.72 15.4399C72.72 22.9999 68.81 25.9102 63.72 25.9102C58.63 25.9102 54.31 22.9899 54.31 15.4399C54.31 7.88994 58.43 0 63.52 0H63.51Z" fill="#357B8F"/>
</svg>
