<?xml version="1.0" encoding="UTF-8"?>
<svg version="1.1" xmlns="http://www.w3.org/2000/svg" width="256" height="256">
<path d="M0 0 C1.89586353 1.38691235 1.89586353 1.38691235 3.71430969 3.19291687 C4.41114365 3.87558121 5.1079776 4.55824554 5.82592773 5.26159668 C6.57471191 6.01533569 7.32349609 6.76907471 8.0949707 7.5456543 C9.29575508 8.73110588 9.29575508 8.73110588 10.52079773 9.94050598 C13.16623362 12.55812153 15.79652611 15.19035762 18.42578125 17.82421875 C20.25665369 19.64731965 22.08797389 21.469971 23.91972351 23.29219055 C27.75713756 27.11467459 31.58682676 30.94468031 35.41137695 34.7800293 C39.83103854 39.21177755 44.26875047 43.6248402 48.71568996 48.02920216 C52.99573794 52.26977221 57.25893164 56.52686368 61.51576805 60.7907505 C63.32801673 62.60197078 65.14501239 64.40845404 66.96676064 66.21011925 C69.5097332 68.72847984 72.03296247 71.26510391 74.55200195 73.80737305 C75.31090729 74.55099091 76.06981262 75.29460876 76.85171509 76.0607605 C79.69548212 78.96296038 81.71314487 81.08270908 82.93574524 84.99227905 C81.41982386 89.86483227 78.05507677 92.78652219 74.47607422 96.31616211 C73.67616562 97.12819092 72.87625702 97.94021973 72.05210876 98.77685547 C69.4013673 101.45912603 66.72912858 104.11871778 64.0546875 106.77734375 C62.20737177 108.63123872 60.36087558 110.48595066 58.51516724 112.34144592 C54.64375546 116.22834109 50.75953063 120.10208471 46.86816406 123.96899414 C42.36997405 128.43936216 37.89589234 132.93284079 33.43330562 137.43872827 C29.13800812 141.77409381 24.82335818 146.08965401 20.50037003 150.39740181 C18.66342184 152.23219177 16.83181938 154.07234958 15.00564194 155.91786003 C12.4536419 158.49228631 9.88042217 161.0434083 7.30029297 163.58959961 C6.54575333 164.35987991 5.79121368 165.13016022 5.0138092 165.92378235 C-0.17532888 170.97857992 -0.17532888 170.97857992 -4.39376831 171.08815002 C-7 170 -7 170 -9 168 C-9.52661133 165.31918335 -9.52661133 165.31918335 -9 162 C-7.17948264 159.31003031 -4.90287343 157.14497705 -2.57421875 154.89306641 C-1.55009384 153.86762726 -1.55009384 153.86762726 -0.50527954 152.82147217 C1.7533823 150.56698805 4.03254532 148.33449395 6.3125 146.1015625 C7.8832211 144.54203267 9.45262208 142.9811722 11.02075195 141.41903687 C15.15051005 137.31218158 19.29796855 133.22366206 23.44934082 129.13867188 C27.68277088 124.96663111 31.8992551 120.77754177 36.1171875 116.58984375 C44.39493903 108.37643079 52.69148531 100.18228404 61 92 C59.80709949 91.99761165 58.61419897 91.99522329 57.38514996 91.99276257 C29.08568343 91.93543698 0.78628512 91.8627309 -27.51309072 91.77101372 C-30.99415973 91.75974518 -34.47522914 91.74860679 -37.95629883 91.73754883 C-38.99585237 91.7342433 -38.99585237 91.7342433 -40.056407 91.730871 C-51.28672506 91.69547191 -62.51704305 91.67062255 -73.74739627 91.64965298 C-85.2656744 91.62791168 -96.78387081 91.59465361 -108.30208892 91.55129844 C-114.77385686 91.52730552 -121.24554428 91.50861658 -127.71735573 91.50238609 C-133.80351197 91.49636264 -139.88946199 91.47646252 -145.97554207 91.44572449 C-148.21410951 91.43690015 -150.45270385 91.43323069 -152.69128799 91.43499184 C-155.73830666 91.43663272 -158.7846877 91.42004694 -161.83161926 91.39872742 C-162.72558074 91.40357499 -163.61954222 91.40842257 -164.54059345 91.41341704 C-165.76177482 91.39923223 -165.76177482 91.39923223 -167.00762653 91.38476086 C-167.71124831 91.38286225 -168.41487008 91.38096365 -169.13981372 91.37900752 C-171.59693609 90.87837602 -172.49002694 89.97169359 -174 88 C-174.64476052 82.84191581 -174.64476052 82.84191581 -172.72608584 80.33654755 C-170.63508279 78.71743629 -169.62755161 78.62230856 -167.00762653 78.61523914 C-166.19350561 78.6057826 -165.3793847 78.59632606 -164.54059345 78.58658296 C-163.64663197 78.59143053 -162.75267048 78.59627811 -161.83161926 78.60127258 C-160.88167184 78.59462576 -159.93172442 78.58797893 -158.95299071 78.58113068 C-155.75606918 78.56241377 -152.55951906 78.56511183 -149.36254883 78.56762695 C-147.07641569 78.55861511 -144.7902874 78.54828933 -142.50416565 78.53674316 C-136.28552073 78.50907927 -130.06696725 78.4998759 -123.84826875 78.49388909 C-117.35394278 78.48452982 -110.85968577 78.45832849 -104.36540222 78.43388367 C-93.46114108 78.39512115 -82.55689833 78.36679632 -71.65258789 78.34643555 C-60.4204646 78.32543416 -49.18838539 78.29816645 -37.95629883 78.26245117 C-36.91800662 78.25915293 -36.91800662 78.25915293 -35.85873882 78.25578807 C-32.38624585 78.24471862 -28.9137533 78.23352578 -25.44126093 78.22227156 C3.37245188 78.12904714 32.18619498 78.05768926 61 78 C60.12303467 77.13635834 59.24606934 76.27271667 58.3425293 75.38290405 C50.08583569 67.24776321 41.84497202 59.09688369 33.61940002 50.93027306 C29.38987493 46.73207955 25.15494261 42.53965667 20.90722656 38.35986328 C16.80925624 34.32701539 12.72605551 30.27974777 8.65274048 26.22200394 C7.09500728 24.67536947 5.53199672 23.13403182 3.9637146 21.59809494 C1.77025534 19.44809948 -0.40379304 17.28014457 -2.57421875 15.10693359 C-3.22877045 14.47395355 -3.88332214 13.84097351 -4.55770874 13.18881226 C-8.87646395 8.80957897 -8.87646395 8.80957897 -9.50708008 4.6769104 C-9 2 -9 2 -7.3125 0.0625 C-4.34720051 -1.2999349 -3.0963749 -0.91656296 0 0 Z " fill="#405144" transform="translate(174,43)"/>
</svg>
