<svg width="130" height="67" viewBox="0 0 130 67" fill="none" xmlns="http://www.w3.org/2000/svg">
<path d="M33.7533 55.1895C33.4833 57.1095 34.5732 58.9595 36.3732 59.6795C60.0132 70.9195 85.0632 68.6597 103.373 53.6397H103.383C117.483 41.3697 126.683 24.4195 129.283 5.90949C129.493 4.63949 129.083 3.34952 128.173 2.43952C127.263 1.54952 125.993 1.12964 124.723 1.30964C111.753 2.94964 98.6333 2.8897 85.6933 1.1297C66.3033 -0.790296 49.5132 -2.43035 34.7332 15.5696C32.4532 18.3996 30.4032 21.3896 28.5932 24.5296C24.7732 30.8896 21.9433 37.7796 20.1933 44.9796C14.3033 47.9696 8.18324 51.3995 1.86324 55.4195C0.963238 55.9795 0.323249 56.8895 0.0932491 57.9395C-0.136751 58.9795 0.063237 60.0695 0.643237 60.9595C0.833237 61.2795 1.07323 61.5596 1.35323 61.7996C2.69323 63.0096 4.68326 63.1495 6.19326 62.1695C23.9833 50.8795 51.8532 36.6097 68.7032 35.6097C56.4232 40.9197 44.7133 47.4795 33.7833 55.1895H33.7533Z" fill="#798368"/>
</svg>
