<?xml version="1.0" encoding="UTF-8"?>
<svg version="1.1" xmlns="http://www.w3.org/2000/svg" width="512" height="512">
<path d="M0 0 C1.45108658 0.00273422 1.45108658 0.00273422 2.93148804 0.00552368 C17.26440977 0.05095174 31.21023917 0.55983928 45.3125 3.3125 C46.65803955 3.55395752 46.65803955 3.55395752 48.03076172 3.80029297 C107.84088904 14.62287989 165.35495829 48.68064457 202.3125 97.3125 C202.72918945 97.85277832 203.14587891 98.39305664 203.57519531 98.94970703 C211.2584873 108.9447116 218.00092968 119.40459036 224.3125 130.3125 C224.70679199 130.98974121 225.10108398 131.66698242 225.50732422 132.36474609 C238.68961173 155.2833756 247.29510918 180.85822563 252.625 206.6875 C252.77243652 207.39817627 252.91987305 208.10885254 253.07177734 208.84106445 C256.05713787 224.48358366 256.6873098 240.11919606 256.625 256 C256.62226578 257.45108658 256.62226578 257.45108658 256.61947632 258.93148804 C256.57404826 273.26440977 256.06516072 287.21023917 253.3125 301.3125 C253.15152832 302.20952637 252.99055664 303.10655273 252.82470703 304.03076172 C244.93444853 347.63561969 225.24485057 388.77240471 196.3125 422.3125 C195.67828125 423.05757813 195.0440625 423.80265625 194.390625 424.5703125 C182.57948485 438.07529833 169.82889772 450.74668743 155.3125 461.3125 C154.16255169 462.16899066 153.01281411 463.02576433 151.86328125 463.8828125 C143.67160474 469.9234414 135.15604922 475.28255071 126.3125 480.3125 C125.68069824 480.67698242 125.04889648 481.04146484 124.39794922 481.41699219 C98.36854716 496.31535669 68.95139511 505.95897542 39.3125 510.3125 C38.10787109 510.48982666 36.90324219 510.66715332 35.66210938 510.84985352 C24.00482646 512.448825 12.44063902 512.6709053 0.6875 512.625 C-0.76733292 512.62226578 -0.76733292 512.62226578 -2.2515564 512.61947632 C-16.60306055 512.57408309 -30.56692918 512.0687347 -44.6875 509.3125 C-45.58452637 509.15152832 -46.48155273 508.99055664 -47.40576172 508.82470703 C-107.21588904 498.00212011 -164.72995829 463.94435543 -201.6875 415.3125 C-202.10418945 414.77222168 -202.52087891 414.23194336 -202.95019531 413.67529297 C-210.6334873 403.6802884 -217.37592968 393.22040964 -223.6875 382.3125 C-224.08179199 381.63525879 -224.47608398 380.95801758 -224.88232422 380.26025391 C-238.06461173 357.3416244 -246.67010918 331.76677437 -252 305.9375 C-252.14743652 305.22682373 -252.29487305 304.51614746 -252.44677734 303.78393555 C-255.43213787 288.14141634 -256.0623098 272.50580394 -256 256.625 C-255.99817719 255.65760895 -255.99635437 254.6902179 -255.99447632 253.69351196 C-255.94904826 239.36059023 -255.44016072 225.41476083 -252.6875 211.3125 C-252.44604248 209.96696045 -252.44604248 209.96696045 -252.19970703 208.59423828 C-244.30944853 164.98938031 -224.61985057 123.85259529 -195.6875 90.3125 C-195.05328125 89.56742187 -194.4190625 88.82234375 -193.765625 88.0546875 C-181.95448485 74.54970167 -169.20389772 61.87831257 -154.6875 51.3125 C-153.53755169 50.45600934 -152.38781411 49.59923567 -151.23828125 48.7421875 C-143.04660474 42.7015586 -134.53104922 37.34244929 -125.6875 32.3125 C-125.05569824 31.94801758 -124.42389648 31.58353516 -123.77294922 31.20800781 C-100.75328699 18.03231834 -75.23404551 9.34893105 -49.3125 4 C-48.60182373 3.85256348 -47.89114746 3.70512695 -47.15893555 3.55322266 C-31.51641634 0.56786213 -15.88080394 -0.0623098 0 0 Z " fill="#D61E1E" transform="translate(255.6875,-0.3125)"/>
<path d="M0 0 C0.87398437 0.13422363 1.74796875 0.26844727 2.6484375 0.40673828 C14.79833064 2.32749345 26.40116282 4.91680714 38 9 C38.72719238 9.24588867 39.45438477 9.49177734 40.20361328 9.74511719 C68.8758586 19.44657315 94.32511859 34.80636174 116.34375 55.5546875 C118.94383774 58.00746033 118.94383774 58.00746033 121.6484375 60.10546875 C123.73063309 61.78298513 125.39902953 63.40880696 127.125 65.4375 C127.72183594 66.13875 128.31867188 66.84 128.93359375 67.5625 C129.61550781 68.366875 130.29742187 69.17125 131 70 C131.81597656 70.928125 132.63195312 71.85625 133.47265625 72.8125 C154.98557088 97.42907203 170.60666336 126.32192299 179 158 C179.39058594 159.38832031 179.39058594 159.38832031 179.7890625 160.8046875 C181.41252129 166.85576118 182.58229543 172.95241879 183.625 179.125 C183.74818604 179.85291748 183.87137207 180.58083496 183.99829102 181.33081055 C187.7434808 204.41018671 186.77112655 227.9915936 183 251 C182.76651855 252.42723389 182.76651855 252.42723389 182.52832031 253.88330078 C177.30786804 284.17963809 164.58954568 312.89350105 147 338 C146.53996582 338.65774414 146.07993164 339.31548828 145.60595703 339.99316406 C139.94640073 347.98007055 139.94640073 347.98007055 137 351 C133 351 133 351 130.57318521 349.06997919 C129.66033753 348.15561264 128.74748986 347.24124608 127.80698013 346.29917145 C127.29416428 345.79097097 126.78134842 345.28277049 126.25299269 344.75917 C124.52296417 343.03979823 122.80766673 341.30643001 121.09185791 339.57287598 C119.84769451 338.33045556 118.60265301 337.08891394 117.35680652 335.84818125 C113.92491619 332.42526824 110.50567816 328.98995121 107.08829761 325.55256009 C103.40502046 321.85206203 99.71024586 318.16307624 96.01683044 314.47270203 C89.61569672 308.07366906 83.22194659 301.66733385 76.83310699 295.25602722 C67.59583196 285.98628945 58.34757451 276.72757358 49.09657082 267.47153908 C34.08893779 252.4551444 19.09026522 237.42983266 4.09716797 222.39892578 C-10.47009411 207.79496612 -25.0415377 193.19519973 -39.61865234 178.60107422 C-40.51668712 177.70198855 -41.41472189 176.80290288 -42.33996984 175.87657219 C-46.84502397 171.36629804 -51.35016073 166.85610642 -55.85533857 162.34595585 C-93.24971189 124.91009341 -130.62957017 87.45976304 -168 50 C-166.60546276 47.07169372 -165.49976006 45.3047692 -162.90234375 43.3359375 C-162.27457031 42.85866211 -161.64679688 42.38138672 -161 41.88964844 C-160.319375 41.38981445 -159.63875 40.88998047 -158.9375 40.375 C-158.22722656 39.84938477 -157.51695312 39.32376953 -156.78515625 38.78222656 C-149.19060516 33.26285325 -141.23707399 28.49048389 -133 24 C-132.35095703 23.64454102 -131.70191406 23.28908203 -131.03320312 22.92285156 C-91.35866041 1.47443126 -44.60608333 -6.90023507 0 0 Z " fill="#F3ECEC" transform="translate(286,42)"/>
<path d="M0 0 C3.83646037 1.58316519 6.26266516 4.0141365 9.1774025 6.93130684 C9.68852998 7.44012663 10.19965746 7.94894643 10.72627366 8.473185 C12.44569429 10.18729239 14.15786115 11.90846774 15.87017822 13.62966919 C17.11064362 14.86926279 18.35154828 16.10841695 19.59285522 17.34716785 C23.00880237 20.75863234 26.41846422 24.17631966 29.8271594 27.59502816 C33.50176817 31.27825589 37.18213635 34.95572055 40.86181641 38.63388062 C47.23838509 45.00939946 53.61127519 51.38857647 59.98169708 57.77023697 C69.1923173 66.99709586 78.40844057 76.21844179 87.62592599 85.43844186 C102.57972648 100.39662201 117.52905311 115.35926513 132.47558594 130.32470703 C146.99668322 144.86415607 161.51987492 159.40150773 176.04589844 173.93603516 C176.94094622 174.83160838 177.835994 175.72718161 178.75816444 176.64989342 C183.24826888 181.1426079 187.73841464 185.63528109 192.22858095 190.12793374 C229.49212845 227.41222221 266.74842406 264.70375074 304 302 C302.62033943 304.89227129 301.53120756 306.67394202 298.97265625 308.62890625 C298.35543701 309.10094482 297.73821777 309.5729834 297.10229492 310.05932617 C296.4291626 310.55537354 295.75603027 311.0514209 295.0625 311.5625 C294.35520752 312.08626221 293.64791504 312.61002441 292.91918945 313.1496582 C262.71637115 335.04859471 226.94968819 348.54947733 190 353 C189.14148438 353.11085938 188.28296875 353.22171875 187.3984375 353.3359375 C148.82554102 357.44889764 107.51178665 350.76585178 72.92382812 332.98779297 C70.74529176 331.8692196 68.55207083 330.78194629 66.359375 329.69140625 C56.23299788 324.58176642 46.97821448 318.92474739 38 312 C37.09894531 311.31035156 36.19789062 310.62070312 35.26953125 309.91015625 C30.06003562 305.83140386 25.12820931 301.48665079 20.24609375 297.0234375 C18.47274404 295.42588072 16.68316018 293.91616508 14.8125 292.4375 C11.14137208 289.25585581 8.13219687 285.70332681 5 282 C4.17371094 281.0615625 3.34742188 280.123125 2.49609375 279.15625 C-35.3302498 235.93102454 -53.08603711 179.07893434 -50 122 C-49.39943183 114.93116567 -48.32242757 107.96663477 -47 101 C-46.76023438 99.72125 -46.52046875 98.4425 -46.2734375 97.125 C-45.58378839 93.72980438 -44.81483157 90.36717164 -44 87 C-43.60554688 85.29263672 -43.60554688 85.29263672 -43.203125 83.55078125 C-39.01126748 66.54434176 -32.27711472 50.40024855 -24 35 C-23.40960938 33.86820313 -22.81921875 32.73640625 -22.2109375 31.5703125 C-16.2394817 20.56758756 -8.88483145 8.88483145 0 0 Z " fill="#F3ECEC" transform="translate(90,118)"/>
</svg>
