<svg width="90" height="90" viewBox="0 0 90 90" fill="none" xmlns="http://www.w3.org/2000/svg">
<path d="M62.86 40.5251C63.8 41.4651 63.8 42.995 62.86 43.935L43.95 62.845C43.04 63.775 41.45 63.775 40.54 62.845L27.15 49.465C26.21 48.525 26.21 46.9751 27.15 46.0351L46.06 27.125C46.54 26.6651 47.15 26.4151 47.77 26.4151C48.39 26.4151 49.01 26.6651 49.48 27.125L62.87 40.5151L62.86 40.5251ZM90 20.7551C90 26.0751 87.98 31.405 83.91 35.445L35.44 83.9051C27.34 92.0151 14.2 92.0151 6.09 83.9051C2.03 79.8551 0 74.545 0 69.225C0 63.905 2.02 58.6151 6.09 54.5451L54.56 6.075C62.66 -2.025 75.8 -2.025 83.91 6.075C87.97 10.135 90 15.4451 90 20.7551ZM11.31 63.2551C10.82 62.7651 9.99 62.7651 9.5 63.2551C8.99 63.7651 8.99 64.575 9.5 65.075C9.99 65.585 10.82 65.585 11.31 65.075C11.82 64.565 11.82 63.7551 11.31 63.2551ZM19.03 70.985C18.52 70.475 17.71 70.475 17.21 70.985C16.7 71.475 16.7 72.3051 17.21 72.7951C17.72 73.3051 18.53 73.3051 19.03 72.7951C19.52 72.3051 19.52 71.475 19.03 70.985ZM19.7 54.8851C19.21 54.3751 18.38 54.3751 17.89 54.8851C17.38 55.3751 17.38 56.205 17.89 56.695C18.38 57.205 19.21 57.205 19.7 56.695C20.21 56.205 20.21 55.3751 19.7 54.8851ZM63.26 11.315C63.77 11.825 64.58 11.825 65.08 11.315C65.57 10.805 65.57 9.99504 65.08 9.49504C64.57 8.98504 63.76 8.98504 63.26 9.49504C62.75 10.005 62.75 10.815 63.26 11.315ZM62.58 27.4151C63.09 27.9051 63.9 27.9051 64.4 27.4151C64.91 26.9051 64.91 26.095 64.4 25.595C63.89 25.085 63.08 25.085 62.58 25.595C62.09 26.105 62.09 26.9151 62.58 27.4151ZM54.88 19.705C55.39 20.195 56.2 20.195 56.7 19.705C57.21 19.195 57.21 18.3851 56.7 17.8851C56.19 17.3751 55.38 17.3751 54.88 17.8851C54.39 18.3951 54.39 19.205 54.88 19.705ZM26.74 78.685C26.23 78.175 25.42 78.175 24.92 78.685C24.41 79.195 24.41 80.0051 24.92 80.5051C25.43 80.995 26.24 80.995 26.74 80.5051C27.25 79.995 27.25 79.185 26.74 78.685ZM27.4 62.595C26.91 62.085 26.08 62.085 25.59 62.595C25.08 63.105 25.08 63.9151 25.59 64.4151C26.08 64.9051 26.91 64.9051 27.4 64.4151C27.91 63.9051 27.91 63.095 27.4 62.595ZM35.13 70.3051C34.62 69.7951 33.81 69.7951 33.31 70.3051C32.8 70.8151 32.8 71.625 33.31 72.125C33.82 72.615 34.63 72.615 35.13 72.125C35.62 71.615 35.62 70.8051 35.13 70.3051ZM64.68 38.705L51.29 25.315C49.35 23.375 46.18 23.375 44.24 25.315L25.33 44.245C23.39 46.185 23.39 49.3551 25.33 51.2851L38.72 64.6751C39.66 65.6151 40.92 66.1351 42.25 66.1351C43.58 66.1351 44.84 65.6151 45.78 64.6751L64.69 45.7651C66.63 43.8151 66.63 40.655 64.69 38.715L64.68 38.705ZM72.11 33.2951C71.62 32.8051 70.79 32.8051 70.3 33.2951C69.79 33.8051 69.79 34.615 70.3 35.115C70.79 35.625 71.62 35.625 72.11 35.115C72.62 34.605 72.62 33.7951 72.11 33.2951ZM72.79 17.205C72.28 16.715 71.47 16.715 70.97 17.205C70.48 17.715 70.48 18.5251 70.97 19.0251C71.48 19.5351 72.29 19.5351 72.79 19.0251C73.3 18.5151 73.3 17.705 72.79 17.205ZM80.5 24.9151C79.99 24.4251 79.18 24.4251 78.68 24.9151C78.19 25.4251 78.19 26.235 78.68 26.735C79.19 27.245 80 27.245 80.5 26.735C81.01 26.225 81.01 25.4151 80.5 24.9151Z" fill="#798368"/>
</svg>
