<svg width="95" height="81" viewBox="0 0 95 81" fill="none" xmlns="http://www.w3.org/2000/svg">
<path d="M93.09 7.09503C94.67 5.51503 94.67 2.865 93.09 1.185C91.51 -0.395 88.86 -0.395 87.28 1.185L75.26 13.205V32.715H0.289978C0.089978 34.385 0 36.0651 0 37.7351C0 51.5251 6.49996 63.835 16.65 71.725C18.42 68.865 21.58 66.895 25.22 66.895C30.74 66.895 35.17 71.325 35.17 76.845C35.17 77.925 34.97 78.915 34.68 79.895C37.34 80.385 40.1 80.685 42.95 80.685H49.55C49.16 79.605 48.96 78.515 48.96 77.335C48.96 71.525 53.69 66.895 59.4 66.895C64.03 66.895 67.97 69.845 69.35 73.985C84.62 60.885 83.54 32.715 83.54 32.715V16.655L93.1 7.09503H93.09Z" fill="#357B8F"/>
</svg>
