<svg width="90" height="90" viewBox="0 0 90 90" fill="none" xmlns="http://www.w3.org/2000/svg">
<path d="M44.81 0C20.06 0 0 20.0601 0 44.8101C0 69.5601 20.06 89.6199 44.81 89.6199C69.56 89.6199 89.62 69.5601 89.62 44.8101C89.62 20.0601 69.56 0 44.81 0ZM49.49 22.9199L48.56 52.03H41.18L40.18 22.9199H49.49ZM48.69 65.22C47.74 66.2 46.44 66.6699 44.78 66.6699C43.25 66.6699 41.99 66.19 40.99 65.22C40.01 64.24 39.5 63.07 39.5 61.71C39.5 60.35 40.01 59.1299 40.99 58.1699C41.98 57.2199 43.25 56.74 44.78 56.74C46.44 56.74 47.74 57.2199 48.69 58.1699C49.65 59.1299 50.12 60.31 50.12 61.71C50.12 63.11 49.65 64.25 48.69 65.22Z" fill="#DCDACD"/>
</svg>
