<svg width="81" height="75" viewBox="0 0 81 75" fill="none" xmlns="http://www.w3.org/2000/svg">
<path d="M35.0858 3.0825L0.735857 65.7724C-1.43414 69.6924 1.45587 74.4825 5.99587 74.4825H74.7158C79.2358 74.4825 82.1258 69.6924 79.9758 65.7724L45.6059 3.0825C43.3359 -1.0275 37.3658 -1.0275 35.0958 3.0825H35.0858ZM43.7558 29.0925L43.0558 52.7525H37.6258L36.9258 29.0925H43.7558ZM40.3458 65.6325C38.2658 65.6325 36.6458 64.0625 36.6458 62.0625C36.6458 60.0625 38.2758 58.4925 40.3458 58.4925C42.4158 58.4925 44.0458 60.0625 44.0458 62.0625C44.0458 64.0625 42.4158 65.6325 40.3458 65.6325Z" fill="#1E2E5E"/>
</svg>
