<svg width="62" height="78" viewBox="0 0 62 78" fill="none" xmlns="http://www.w3.org/2000/svg">
<path fill-rule="evenodd" clip-rule="evenodd" d="M8.59009 32.61V22.3101C8.59009 9.99006 18.58 0 30.9 0C43.22 0 53.2101 9.99006 53.2101 22.3101V32.61H55.78C59.1 32.61 61.79 35.3 61.79 38.62V71.2301C61.79 74.5501 59.1 77.24 55.78 77.24H6.01001C2.69001 77.24 0 74.5501 0 71.2301V38.62C0 35.3 2.69001 32.61 6.01001 32.61H8.58008H8.59009ZM18.89 22.3101C18.89 15.6701 24.27 10.3 30.9 10.3C37.53 10.3 42.91 15.6801 42.91 22.3101V32.61H18.88V22.3101H18.89ZM34.3301 53.8401C35.8901 52.7501 36.91 50.95 36.91 48.91C36.91 45.59 34.22 42.9 30.9 42.9C27.58 42.9 24.89 45.59 24.89 48.91C24.89 50.95 25.91 52.7501 27.47 53.8401V63.5C27.47 65.4 29.01 66.9301 30.9 66.9301C32.79 66.9301 34.3301 65.39 34.3301 63.5V53.8401Z" fill="#1E2E5E"/>
</svg>
