<svg width="79" height="96" viewBox="0 0 79 96" fill="none" xmlns="http://www.w3.org/2000/svg">
<path d="M76.8 19.45C50.9 9.14995 41.3 0.85 41.2 0.75C40.1 -0.25 38.5 -0.25 37.4 0.75C37.3 0.85 27.8 9.04995 1.80002 19.45C0.700018 19.85 0 20.9499 0 22.0499C0 73.2499 36.3 93.85 37.9 94.65C38.3 94.85 38.8 95.0499 39.3 95.0499C39.8 95.0499 40.2 94.95 40.7 94.65C42.2 93.75 78.6 73.2499 78.6 22.0499C78.6 20.9499 77.9 19.85 76.8 19.45ZM39.3 63.45C27.6 63.45 18.1 53.95 18.1 42.25C18.1 30.55 27.6 20.95 39.3 20.95C51 20.95 60.5 30.45 60.5 42.15C60.5 53.85 51 63.45 39.3 63.45Z" fill="#798368"/>
<g transform="translate(25.75, 25.75)">
<path d="M24.6 10.4H18V3.80005C18 1.70005 16.3 0 14.2 0C12.1 0 10.4 1.70005 10.4 3.80005V10.4H3.79999C1.69999 10.4 0 12.1001 0 14.2001C0 16.3001 1.69999 18 3.79999 18H10.4V24.5C10.4 26.6 12.1 28.3 14.2 28.3C16.3 28.3 18 26.6 18 24.5V17.9H24.6C26.7 17.9 28.4 16.2001 28.4 14.1001C28.4 12.1001 26.7 10.4 24.6 10.4Z" fill="#798368"/>
</g>
</svg>