<svg width="65" height="87" viewBox="0 0 65 87" fill="none" xmlns="http://www.w3.org/2000/svg">
<path d="M48.2883 30.3499L54.1484 36.78C55.3784 38.16 57.0583 38.94 58.7283 38.99C59.8183 39.05 61.3183 38.7599 62.6983 37.4199C65.4183 34.7299 65.4983 30.07 62.9383 27.21H62.9083L53.6284 17C47.6084 10.37 37.4783 9.64982 30.5683 15.3198L20.7083 23.3999C19.6983 24.2499 18.1983 24.1098 17.3483 23.0598C16.5183 22.0498 16.6583 20.53 17.6883 19.7L27.5284 11.6199C36.4084 4.31987 49.4583 5.25001 57.1983 13.76L64.2883 21.54C65.1983 19.03 64.7383 16 62.8583 13.96L56.4283 6.87988C52.2483 2.31988 46.7483 0 41.2283 0C36.5683 0 31.8783 1.66004 27.9783 5.04004L11.1683 19.5598C3.81828 25.0798 -0.311624 34.08 0.0183765 43.71C0.418376 56.88 9.61837 68.29 21.3884 70.29C21.9684 70.38 22.5384 70.47 23.1184 70.52C31.7784 71.3 40.6083 74.8598 48.6683 80.8098L54.5783 85.1499C55.9683 86.2099 57.6583 86.61 59.2883 86.3C61.0283 85.9501 62.5683 84.8399 63.5783 83.1799C65.5783 79.9199 64.9583 75.4798 62.1883 73.0798L39.3984 53.8398C36.1684 51.0698 34.1383 46.98 33.8583 42.52C33.5383 38.01 35.0584 33.5698 38.0184 30.3198C40.7384 27.3398 45.5983 27.3398 48.3383 30.3198V30.3499H48.2883Z" fill="#1E2E5E"/>
</svg>
