<svg width="65" height="87" viewBox="0 0 65 87" fill="none" xmlns="http://www.w3.org/2000/svg">
<path d="M53.7437 19.6724L36.8236 5.04252C28.2936 -2.33748 16.0537 -1.5376 8.36369 6.9224L1.93376 13.9825C0.0537556 16.0325 -0.386298 19.0623 0.503702 21.5623L7.59367 13.8123C15.3537 5.2823 28.3837 4.35238 37.2637 11.6524L47.1037 19.7325C48.1337 20.5625 48.2736 22.0823 47.4436 23.0923C46.5936 24.1223 45.0937 24.2624 44.0837 23.4324L34.2237 15.3523C27.3137 9.69234 17.1837 10.4025 11.1637 17.0325L1.94364 27.1524V27.1824C-0.716357 30.1124 -0.636303 34.7624 2.1237 37.4624C3.4637 38.8024 5.00364 39.0425 6.06364 39.0325C7.74364 38.9825 9.42372 38.1823 10.6437 36.8223L16.5037 30.3924C17.8837 28.9024 19.7237 28.0823 21.6737 28.0823C23.6237 28.0823 25.4836 28.9024 26.8236 30.4024C29.7836 33.6224 31.2837 38.0623 30.9837 42.5823C30.6937 47.0123 28.6736 51.1324 25.4436 53.9024L2.63371 73.1624C-0.106293 75.5424 -0.726298 79.9825 1.2537 83.2425C2.2637 84.9025 3.79374 86.0123 5.54374 86.3623C7.17374 86.6823 8.8537 86.2725 10.2537 85.2425L16.1637 80.8724C24.2137 74.9224 33.0537 71.3623 41.7137 70.5823C42.2937 70.5323 42.8636 70.4523 43.4436 70.3523C55.2136 68.3523 64.3936 56.9525 64.8136 43.7725C65.1336 34.1425 61.0037 25.1424 53.7737 19.7124V19.6724H53.7437Z" fill="#1E2E5E"/>
</svg>
